<?xml version="1.0" encoding="UTF-8" standalone="no"?>
<!-- Created with Inkscape (http://www.inkscape.org/) -->

<svg
   xmlns:svg="http://www.w3.org/2000/svg"
   xmlns="http://www.w3.org/2000/svg"
   version="1.1"
   width="59.765961"
   height="35.433624"
   id="svg3184">
  <defs
     id="defs3186" />
  <g
     transform="translate(-264.40274,-363.21681)"
     id="layer1">
    <g
       transform="matrix(1.25,0,0,-1.25,-201.60606,752.88442)"
       id="g3142">
      <path
         d="m 392.65704,283.38719 0.96953,0 0,28.3469 -0.96953,0 0,-28.3469 z"
         id="path2962"
         style="fill:#231f20;fill-opacity:1;fill-rule:nonzero;stroke:none" />
      <path
         d="m 378.08004,302.31019 c 0.46,0.648 1.515,2.677 4.597,2.677 2.171,0 3.326,-0.865 3.785,-1.298 1.325,-1.299 1.406,-3.164 1.406,-4.218 l 0,-8.995 -5.57,0 0,7.906 c 0,0.16 -0.026,2.008 -1.893,2.008 -1.975,0 -2.027,-1.814 -2.027,-2.299 l 0,-7.615 -5.571,0 0,14.16 5.273,0 0,-2.326"
         id="path2964"
         style="fill:#231f20;fill-opacity:1;fill-rule:nonzero;stroke:none" />
      <path
         d="m 418.34604,304.96119 c -1.044,0 -1.89,-0.847 -1.89,-1.89 0,-1.044 0.846,-1.89 1.89,-1.89 0.958,0 1.381,0.69 1.393,0.655 0.541,-1.651 -2.329,-10.214 -6.252,-10.214 -1.269,0 -1.663,1.027 -1.663,2.358 0,1.572 0.454,3.175 1.029,5.352 0.604,2.146 1.149,4.203 1.453,5.304 l -3.78,0 c -0.515,-1.857 -4.214,-12.742 -7.349,-12.742 -0.393,0 -0.817,0.423 -0.817,1.179 0,0.422 0.362,1.905 0.545,2.449 l 1.238,4.233 c 0.272,0.878 0.665,2.025 0.665,2.873 0,1.481 -1.027,2.328 -2.236,2.328 -3.417,0 -4.838,-3.053 -5.535,-4.293 l 0.576,-0.364 c 0.332,0.544 1.844,3.114 2.872,3.114 0.151,0 0.272,-0.181 0.272,-0.725 0,-0.363 -0.21,-1.179 -0.423,-1.935 l -1.3,-4.293 c -0.212,-0.787 -0.727,-2.299 -0.727,-3.387 0,-1.996 1.513,-2.994 2.843,-2.994 4.849,0 6.955,5.867 7.65,7.559 l 0.061,-0.06 c -0.091,-0.333 -0.515,-2.116 -0.515,-3.024 0,-2.6 1.161,-4.475 3.702,-4.475 7.362,0 11.379,14.882 6.298,14.882"
         id="path2966"
         style="fill:#231f20;fill-opacity:1;fill-rule:nonzero;stroke:none" />
    </g>
  </g>
</svg>
